PathFileType	4	(X/Y/Z)	./resultDataOpenSim/trcMotMarkerGrf/sub09/qtm-05-06.trc
DataRate	CameraRate	NumFrames	NumMarkers	Units	OrigDataRate	OrigDataStartFrame	OrigNumFrames
250.000000	250.000000	13	24	m	250.000000	255	509
Frame#	Time	L.Toe.Tip			R.Toe.Tip			L.Ankle.Lat			R.Ankle.Lat			L.Ankle.Med			R.Ankle.Med			L.Heel			R.Heel			L.Knee.Lat			R.Knee.Lat			L.Knee.Med			R.Knee.Med			L.Thigh.Upper			R.Thigh.Upper			L.ASIS			R.ASIS			V.Sacral			L.Acromium			R.Acromium			C7			L.Elbow			R.Elbow			L.Wrist.Lat			R.Wrist.Lat
		X1	Y1	Z1	X2	Y2	Z2	X3	Y3	Z3	X4	Y4	Z4	X5	Y5	Z5	X6	Y6	Z6	X7	Y7	Z7	X8	Y8	Z8	X9	Y9	Z9	X10	Y10	Z10	X11	Y11	Z11	X12	Y12	Z12	X13	Y13	Z13	X14	Y14	Z14	X15	Y15	Z15	X16	Y16	Z16	X17	Y17	Z17	X18	Y18	Z18	X19	Y19	Z19	X20	Y20	Z20	X21	Y21	Z21	X22	Y22	Z22	X23	Y23	Z23	X24	Y24	Z24

255	1.016	0.14553867	-0.059387078	0.012722923	0.42835478	0.11273028	0.12704539	0.00018316358	-0.011188754	-0.029992607	0.28631043	0.14539267	0.14609708	0.023820535	0.0055268433	0.065066938	0.31894738	0.18074103	0.057254702	-0.073393657	-0.036834571	0.014126718	0.2194564	0.13185005	0.089932335	0.11195378	0.38911212	-0.086343008	0.46653164	0.54300961	0.20577344	0.11379868	0.39078755	0.039162522	0.47302921	0.53673979	0.080655279	0.15792916	0.80883311	-0.13465609	0.17421501	0.82107314	0.23286319	0.24632045	0.89221415	-0.08115663	0.24730791	0.90246031	0.15685385	0.083309741	0.95547843	0.044791993	0.26683307	1.343952	-0.12214173	0.22659399	1.3602575	0.20459245	0.18256491	1.404748	0.033989388	0.13612047	0.99218039	-0.19694471	0.049401144	1.0447928	0.28299026	0.35423952	0.82945727	-0.18956488	0.14615603	0.79585692	0.33969395
256	1.02	0.14557855	-0.059380457	0.01262595	0.44799275	0.1124916	0.12705579	0.00013988627	-0.010772924	-0.029638685	0.30499505	0.14109833	0.14578151	0.024118539	0.0058782632	0.0652588	0.33676069	0.17729188	0.057141157	-0.073307266	-0.036260503	0.014605171	0.23867134	0.12566649	0.089559917	0.1124847	0.38945757	-0.086356218	0.47381919	0.54475914	0.20596078	0.1143268	0.39095094	0.039433561	0.48009996	0.53821981	0.080797721	0.16218006	0.80851374	-0.13438546	0.17970656	0.8206989	0.23318003	0.25131502	0.89175741	-0.081122064	0.25268815	0.9019796	0.15689675	0.08853716	0.95516278	0.044946842	0.2726164	1.3434596	-0.12198847	0.23266736	1.3597678	0.20475384	0.188548	1.4042805	0.034222921	0.14309094	0.99112638	-0.1969741	0.054653966	1.0447847	0.28363303	0.36256035	0.83044448	-0.18854898	0.15127608	0.79564812	0.34040808
257	1.024	0.14558982	-0.059395615	0.012574675	0.46758839	0.11233158	0.12719332	9.7772977e-05	-0.010369752	-0.029281027	0.32367134	0.13693456	0.14548919	0.024415831	0.0062296303	0.065474497	0.35467823	0.17392065	0.057031011	-0.073217506	-0.035692548	0.01514683	0.25803963	0.11962805	0.089089648	0.11290737	0.38980811	-0.086363737	0.48094389	0.54630876	0.20609616	0.11496834	0.39127873	0.039457229	0.48712242	0.53947439	0.080903372	0.1664186	0.80815912	-0.13412522	0.18518402	0.82025335	0.23350273	0.25633269	0.89123142	-0.081085114	0.25806898	0.90142753	0.15695487	0.093792764	0.95480515	0.045033771	0.27840589	1.3429038	-0.12183387	0.23876204	1.3592123	0.20492007	0.19453057	1.4037549	0.03442626	0.14994689	0.99003811	-0.19685597	0.060087081	1.0446618	0.28432398	0.37085594	0.8313665	-0.18753119	0.1564909	0.79535314	0.34108577
258	1.028	0.14558826	-0.059418291	0.012538956	0.48710924	0.11225117	0.1274773	3.5551598e-05	-0.0099604241	-0.028918876	0.34231411	0.13291496	0.1452231	0.0247278	0.0065965382	0.065711434	0.37269328	0.17063667	0.056922729	-0.073125448	-0.035121731	0.015748451	0.27751867	0.11376439	0.088534253	0.11327081	0.39014563	-0.08637305	0.48792623	0.54766854	0.20615827	0.1155987	0.39177834	0.039371929	0.49413483	0.5405125	0.08092644	0.17064691	0.80777133	-0.13387459	0.19064985	0.81974561	0.23383385	0.26140549	0.89064188	-0.08105825	0.26346149	0.90080829	0.15702961	0.099082776	0.95437659	0.045142839	0.28420193	1.3422839	-0.12168024	0.24487809	1.3585917	0.20509313	0.20050243	1.4031555	0.034599081	0.15663192	0.98890335	-0.196526	0.065669979	1.0444255	0.28490153	0.37912402	0.83222294	-0.18651258	0.16177732	0.79496877	0.34172383
259	1.032	0.14558118	-0.059440397	0.012504902	0.50653571	0.11223718	0.12792787	-5.9601169e-05	-0.0095304566	-0.028573973	0.36093895	0.12904956	0.14497767	0.025042412	0.0069756132	0.065953707	0.39081833	0.1674437	0.05680536	-0.073035421	-0.034541882	0.016394532	0.29706945	0.10808788	0.087909448	0.11369652	0.39045136	-0.086409905	0.49474307	0.54882814	0.206161	0.11608129	0.39238583	0.039289562	0.50118803	0.54137171	0.080767785	0.17486713	0.80735244	-0.13363277	0.19610297	0.81918145	0.23417344	0.26654343	0.88999143	-0.081031599	0.26887839	0.90012184	0.15712393	0.10440642	0.95385921	0.045261088	0.29000637	1.3415979	-0.12152721	0.25101272	1.3579071	0.20527495	0.20647283	1.4024765	0.034766921	0.16323696	0.98771532	-0.19608683	0.071353753	1.044092	0.28536427	0.38736608	0.83301747	-0.18549402	0.16711053	0.79449229	0.34231705
260	1.036	0.14557131	-0.059461047	0.012470444	0.5258697	0.11227413	0.12855524	-0.00018121912	-0.009081566	-0.028250254	0.37957218	0.12535745	0.1447467	0.025341874	0.0073526956	0.066189972	0.40905936	0.16435005	0.05667126	-0.072949943	-0.033950886	0.017065885	0.31668575	0.10259353	0.087220326	0.11428615	0.39072172	-0.086496435	0.50135634	0.54977139	0.20612136	0.11649546	0.39297636	0.039192894	0.50833191	0.54210162	0.080324295	0.17908143	0.80690455	-0.13339898	0.20154303	0.81856213	0.23452487	0.27172357	0.88927693	-0.080975662	0.27432456	0.89936346	0.15724207	0.10976395	0.95325337	0.045284938	0.29582373	1.3408438	-0.12136947	0.2571615	1.3571583	0.2054661	0.21246532	1.4017365	0.034967962	0.16987522	0.98647112	-0.19566634	0.077098194	1.0436734	0.28578996	0.39558664	0.83375543	-0.18447495	0.17248374	0.79392505	0.34286435
261	1.04	0.14555988	-0.059483524	0.012435434	0.54511673	0.11235339	0.12934858	-0.00031158481	-0.0086262827	-0.027903542	0.39821139	0.12186485	0.14453487	0.025633021	0.0077196082	0.066430315	0.42740818	0.16136909	0.056524413	-0.072865701	-0.033348491	0.017752091	0.33640342	0.09727656	0.086459866	0.11502394	0.39096735	-0.086624114	0.50777034	0.55049927	0.20606197	0.11711242	0.39338959	0.039031536	0.51552004	0.54269933	0.079648525	0.18329195	0.80642975	-0.13317244	0.20697037	0.81788883	0.23489129	0.2769161	0.88849459	-0.080872843	0.27979585	0.89853131	0.15738514	0.11515314	0.95257378	0.045196721	0.30166128	1.3400193	-0.12119796	0.26332119	1.3563453	0.20566591	0.21849234	1.4009556	0.035217237	0.17659562	0.98516746	-0.19531868	0.082902632	1.043164	0.2862342	0.40378596	0.83443466	-0.18345339	0.17790579	0.79327284	0.34336978
262	1.044	0.14554731	-0.059510566	0.012398307	0.5642672	0.11249712	0.13027871	-0.00043880745	-0.0081730716	-0.027475651	0.41680996	0.11859046	0.14436374	0.025947392	0.0080816562	0.066692455	0.44584304	0.15852281	0.056380023	-0.072775414	-0.032737197	0.018449656	0.35628879	0.092144142	0.085603947	0.11579895	0.39119548	-0.086755912	0.51403387	0.55103639	0.20602082	0.11811579	0.39355266	0.038808233	0.52258513	0.54308704	0.078990638	0.18750086	0.80593014	-0.13295235	0.21238108	0.81716112	0.2352676	0.28209948	0.88764027	-0.08074218	0.28528736	0.89762854	0.15754634	0.12055819	0.95184688	0.045109849	0.30752777	1.3391218	-0.12100547	0.26948888	1.3554717	0.20587105	0.22454267	1.4001356	0.035488399	0.18338394	0.98380423	-0.19503247	0.088808326	1.0425523	0.28671697	0.41195862	0.8350432	-0.18242944	0.18338182	0.79254075	0.34383732
263	1.048	0.14553396	-0.059542589	0.012358002	0.58329913	0.11276582	0.13131166	-0.00055692716	-0.0077220629	-0.02696236	0.43528954	0.11554486	0.14427053	0.026308357	0.0084512373	0.066976804	0.46432436	0.15583839	0.056253115	-0.072673632	-0.032123317	0.01915069	0.3763859	0.087218138	0.084627492	0.11653218	0.39140076	-0.086860257	0.52017747	0.55139346	0.20601975	0.11945175	0.39353154	0.038570298	0.529389	0.54319128	0.078575703	0.1917103	0.8054078	-0.13273794	0.2177734	0.81637516	0.23564714	0.28724868	0.88670512	-0.08062895	0.29080141	0.89665766	0.15771524	0.12594519	0.9510916	0.045083593	0.31342954	1.3381516	-0.12079516	0.27566176	1.354542	0.20607578	0.23060276	1.3992681	0.035747218	0.19020568	0.98238744	-0.19478096	0.094858671	1.0418394	0.28724158	0.42009941	0.83557133	-0.18140648	0.18890547	0.79172841	0.34426733
264	1.052	0.14552067	-0.059578514	0.01231507	0.60218994	0.11321402	0.13241577	-0.00065345597	-0.0072759014	-0.026430768	0.45359531	0.11273011	0.14427336	0.0267054	0.0088351105	0.067263549	0.48280206	0.15333991	0.056144619	-0.072560653	-0.031511308	0.019835505	0.39664033	0.082536503	0.083557984	0.11724826	0.39157645	-0.086936367	0.52616982	0.5515286	0.20603769	0.12093545	0.39344248	0.038358514	0.53592917	0.54300991	0.078422219	0.19592243	0.80486484	-0.1325284	0.22315611	0.81552905	0.2360305	0.29233585	0.88568071	-0.080570419	0.29634739	0.89561974	0.1578882	0.13127872	0.95030454	0.045026952	0.31936547	1.3371171	-0.1205838	0.28184216	1.3535581	0.20627807	0.23667667	1.3983494	0.035987946	0.1970383	0.9809237	-0.19454176	0.10103569	1.0410411	0.28779612	0.42820553	0.83601986	-0.18038677	0.19446885	0.79083277	0.34465993
265	1.056	0.14550784	-0.059616851	0.012270095	0.62091322	0.11384623	0.13356624	-0.00071275058	-0.0068440293	-0.025960546	0.4717698	0.11011129	0.14431183	0.027104131	0.0092237432	0.067525804	0.50123244	0.15104566	0.056047717	-0.072442602	-0.030899018	0.02047208	0.41690275	0.07814448	0.082489921	0.11803393	0.3917244	-0.087004919	0.5319701	0.55139382	0.20604065	0.12239295	0.39338657	0.038170168	0.54226617	0.54258643	0.078425122	0.20013941	0.80430335	-0.13232296	0.22854356	0.81462744	0.23642094	0.29736196	0.88457312	-0.08057272	0.30193737	0.89451855	0.15806977	0.13656482	0.94948023	0.044874691	0.32532698	1.3360336	-0.12039138	0.28803677	1.3525204	0.20648115	0.2427753	1.3973841	0.036221343	0.20387732	0.97941208	-0.1942953	0.10725392	1.0401756	0.28835497	0.43627577	0.83639503	-0.1793688	0.20006964	0.78985463	0.34501785
266	1.06	0.14549466	-0.05965626	0.012222259	0.63944071	0.11462649	0.13474658	-0.00072970999	-0.006430417	-0.025587751	0.48993892	0.10759716	0.1442525	0.027478648	0.0095948466	0.067739855	0.5195744	0.14896566	0.055962094	-0.072328147	-0.030282514	0.021022754	0.43703013	0.074073508	0.081516134	0.11896905	0.39185038	-0.087083951	0.53758901	0.55100043	0.2060175	0.12373189	0.3934359	0.037974493	0.54843603	0.54196157	0.078499868	0.20436338	0.80372541	-0.13212082	0.23394719	0.81367768	0.23681785	0.30237031	0.88340189	-0.080616428	0.30758191	0.89335982	0.1582629	0.14186704	0.94862592	0.044736885	0.33130559	1.334913	-0.12022369	0.29424888	1.351432	0.20668757	0.24889909	1.3963804	0.036448331	0.21072757	0.97784689	-0.19402912	0.11344568	1.0392544	0.28889878	0.44431207	0.83670267	-0.17834939	0.20570543	0.78879969	0.3453428
267	1.064	0.14548008	-0.059695609	0.012169933	0.65776981	0.11551238	0.13592895	-0.00071082023	-0.0060250941	-0.02531016	0.50821115	0.10507976	0.14397694	0.027829133	0.0099301646	0.067888424	0.53777488	0.14709885	0.055891224	-0.072222186	-0.029658795	0.02145801	0.45695371	0.070328493	0.080672498	0.12009005	0.39195654	-0.087176813	0.5430643	0.55039277	0.20597181	0.1249659	0.39359817	0.037762646	0.55445102	0.54115822	0.078612692	0.20859651	0.80313313	-0.13192121	0.23937542	0.81268369	0.23721802	0.30740553	0.88217853	-0.080672293	0.31328373	0.89214828	0.15846203	0.14724318	0.94774223	0.044758255	0.33730073	1.3337567	-0.12006617	0.30047727	1.3503005	0.2068987	0.25504224	1.3953449	0.036666011	0.21759593	0.97622779	-0.19374389	0.1196171	1.0382814	0.2894306	0.45231816	0.83694658	-0.17732646	0.21136951	0.78767506	0.34563296
